<svg width="649" height="160" viewBox="0 0 649 160" fill="none" xmlns="http://www.w3.org/2000/svg">
<path d="M215.108 72.0897C215.108 74.6174 214.528 76.938 213.367 79.0513C212.207 81.1232 210.425 82.8014 208.022 84.086C205.618 85.3706 202.635 86.0129 199.071 86.0129H192.483V101.676H181.854V58.0422H199.071C202.552 58.0422 205.494 58.6431 207.898 59.8448C210.301 61.0465 212.103 62.704 213.305 64.8174C214.507 66.9307 215.108 69.3548 215.108 72.0897ZM198.263 77.5595C200.294 77.5595 201.806 77.083 202.801 76.1299C203.795 75.1769 204.292 73.8301 204.292 72.0897C204.292 70.3493 203.795 69.0026 202.801 68.0495C201.806 67.0964 200.294 66.6199 198.263 66.6199H192.483V77.5595H198.263ZM232.513 72.7735C233.756 70.8673 235.31 69.3755 237.175 68.2982C239.04 67.1793 241.112 66.6199 243.391 66.6199V77.8703H240.469C237.817 77.8703 235.828 78.4505 234.502 79.6107C233.176 80.7295 232.513 82.7186 232.513 85.5778V101.676H221.884V66.9929H232.513V72.7735ZM265.502 102.174C262.104 102.174 259.038 101.449 256.303 99.9982C253.609 98.5479 251.475 96.476 249.901 93.7825C248.367 91.089 247.601 87.9398 247.601 84.3347C247.601 80.771 248.388 77.6424 249.963 74.9489C251.537 72.214 253.692 70.1214 256.427 68.6711C259.162 67.2208 262.228 66.4956 265.626 66.4956C269.024 66.4956 272.091 67.2208 274.826 68.6711C277.56 70.1214 279.715 72.214 281.29 74.9489C282.865 77.6424 283.652 80.771 283.652 84.3347C283.652 87.8983 282.844 91.0476 281.228 93.7825C279.653 96.476 277.478 98.5479 274.701 99.9982C271.966 101.449 268.9 102.174 265.502 102.174ZM265.502 92.9745C267.532 92.9745 269.252 92.2286 270.661 90.7368C272.111 89.2451 272.837 87.111 272.837 84.3347C272.837 81.5583 272.132 79.4243 270.723 77.9325C269.356 76.4407 267.657 75.6948 265.626 75.6948C263.554 75.6948 261.835 76.4407 260.467 77.9325C259.1 79.3828 258.416 81.5169 258.416 84.3347C258.416 87.111 259.079 89.2451 260.405 90.7368C261.773 92.2286 263.472 92.9745 265.502 92.9745ZM307.938 75.8191H302.219V101.676H291.59V75.8191H287.737V66.9929H291.59V65.9983C291.59 61.7302 292.813 58.4981 295.258 56.3019C297.703 54.0642 301.287 52.9454 306.011 52.9454C306.798 52.9454 307.378 52.9661 307.751 53.0075V62.0203C305.721 61.896 304.291 62.186 303.462 62.8905C302.634 63.5949 302.219 64.8588 302.219 66.6821V66.9929H307.938V75.8191ZM319.521 63.3877C317.656 63.3877 316.123 62.8491 314.921 61.7717C313.761 60.6528 313.181 59.2854 313.181 57.6693C313.181 56.0118 313.761 54.6443 314.921 53.5669C316.123 52.4481 317.656 51.8887 319.521 51.8887C321.344 51.8887 322.836 52.4481 323.996 53.5669C325.198 54.6443 325.799 56.0118 325.799 57.6693C325.799 59.2854 325.198 60.6528 323.996 61.7717C322.836 62.8491 321.344 63.3877 319.521 63.3877ZM324.804 66.9929V101.676H314.175V66.9929H324.804ZM353.081 92.6637V101.676H347.673C343.819 101.676 340.815 100.744 338.66 98.8794C336.505 96.9732 335.428 93.8861 335.428 89.618V75.8191H331.201V66.9929H335.428V58.5395H346.057V66.9929H353.019V75.8191H346.057V89.7423C346.057 90.7783 346.306 91.5241 346.803 91.98C347.3 92.4358 348.129 92.6637 349.289 92.6637H353.081ZM386.661 79.2999C389.189 79.8386 391.219 81.1025 392.752 83.0915C394.286 85.0391 395.052 87.2768 395.052 89.8045C395.052 93.451 393.768 96.3517 391.198 98.5064C388.671 100.62 385.128 101.676 380.57 101.676H360.244V58.0422H379.886C384.32 58.0422 387.78 59.0575 390.266 61.0879C392.794 63.1184 394.058 65.874 394.058 69.3548C394.058 71.924 393.374 74.058 392.007 75.757C390.68 77.4559 388.899 78.6369 386.661 79.2999ZM370.873 75.6948H377.835C379.575 75.6948 380.901 75.3219 381.813 74.576C382.766 73.7887 383.242 72.6491 383.242 71.1574C383.242 69.6656 382.766 68.5261 381.813 67.7387C380.901 66.9514 379.575 66.5578 377.835 66.5578H370.873V75.6948ZM378.705 93.0988C380.487 93.0988 381.854 92.7051 382.807 91.9178C383.802 91.089 384.299 89.9081 384.299 88.3749C384.299 86.8417 383.781 85.6399 382.745 84.7698C381.751 83.8996 380.362 83.4645 378.581 83.4645H370.873V93.0988H378.705ZM436.709 66.9929V101.676H426.08V96.9525C425.002 98.4857 423.531 99.7289 421.667 100.682C419.843 101.594 417.813 102.049 415.575 102.049C412.923 102.049 410.582 101.469 408.551 100.309C406.521 99.1073 404.946 97.3876 403.827 95.15C402.709 92.9123 402.149 90.281 402.149 87.256V66.9929H412.716V85.8264C412.716 88.1469 413.317 89.9495 414.518 91.2341C415.72 92.5187 417.336 93.1609 419.367 93.1609C421.439 93.1609 423.075 92.5187 424.277 91.2341C425.479 89.9495 426.08 88.1469 426.08 85.8264V66.9929H436.709ZM443.473 84.2725C443.473 80.7088 444.136 77.5803 445.462 74.8868C446.829 72.1933 448.673 70.1214 450.994 68.6711C453.314 67.2208 455.904 66.4956 458.764 66.4956C461.043 66.4956 463.115 66.9721 464.979 67.9252C466.885 68.8783 468.377 70.1629 469.455 71.7789V55.6803H480.083V101.676H469.455V96.7039C468.46 98.3614 467.03 99.6874 465.166 100.682C463.342 101.676 461.208 102.174 458.764 102.174C455.904 102.174 453.314 101.449 450.994 99.9982C448.673 98.5064 446.829 96.4138 445.462 93.7204C444.136 90.9855 443.473 87.8362 443.473 84.2725ZM469.455 84.3347C469.455 81.6826 468.709 79.59 467.217 78.0568C465.767 76.5236 463.985 75.757 461.871 75.757C459.758 75.757 457.956 76.5236 456.464 78.0568C455.013 79.5486 454.288 81.6205 454.288 84.2725C454.288 86.9245 455.013 89.0379 456.464 90.6125C457.956 92.1457 459.758 92.9123 461.871 92.9123C463.985 92.9123 465.767 92.1457 467.217 90.6125C468.709 89.0793 469.455 86.9867 469.455 84.3347ZM486.903 84.2725C486.903 80.7088 487.566 77.5803 488.892 74.8868C490.259 72.1933 492.103 70.1214 494.424 68.6711C496.744 67.2208 499.334 66.4956 502.193 66.4956C504.472 66.4956 506.544 66.9721 508.409 67.9252C510.315 68.8783 511.807 70.1629 512.884 71.7789V55.6803H523.513V101.676H512.884V96.7039C511.89 98.3614 510.46 99.6874 508.596 100.682C506.772 101.676 504.638 102.174 502.193 102.174C499.334 102.174 496.744 101.449 494.424 99.9982C492.103 98.5064 490.259 96.4138 488.892 93.7204C487.566 90.9855 486.903 87.8362 486.903 84.2725ZM512.884 84.3347C512.884 81.6826 512.138 79.59 510.647 78.0568C509.196 76.5236 507.415 75.757 505.301 75.757C503.188 75.757 501.385 76.5236 499.894 78.0568C498.443 79.5486 497.718 81.6205 497.718 84.2725C497.718 86.9245 498.443 89.0379 499.894 90.6125C501.385 92.1457 503.188 92.9123 505.301 92.9123C507.415 92.9123 509.196 92.1457 510.647 90.6125C512.138 89.0793 512.884 86.9867 512.884 84.3347ZM567.875 66.9929L546.12 118.148H534.683L542.64 100.495L528.53 66.9929H540.402L548.42 88.6856L556.376 66.9929H567.875ZM572.34 102.174C570.476 102.174 568.943 101.635 567.741 100.558C566.581 99.4388 566 98.0713 566 96.4553C566 94.7977 566.581 93.4096 567.741 92.2907C568.943 91.1719 570.476 90.6125 572.34 90.6125C574.164 90.6125 575.655 91.1719 576.816 92.2907C578.017 93.4096 578.618 94.7977 578.618 96.4553C578.618 98.0713 578.017 99.4388 576.816 100.558C575.655 101.635 574.164 102.174 572.34 102.174ZM613.938 93.969H597.652L595.042 101.676H583.916L599.704 58.0422H612.011L627.799 101.676H616.548L613.938 93.969ZM611.203 85.7643L605.795 69.7899L600.449 85.7643H611.203ZM644.476 58.0422V101.676H633.847V58.0422H644.476Z" fill="black"/>
<path d="M76 88.6758V160L142 121.324V50L76 88.6758Z" fill="black"/>
<path d="M66 88.6758V160L0 121.324V50L66 88.6758Z" fill="black"/>
<path d="M71 80L0 40L71 0L142 40L71 80Z" fill="black"/>
<path d="M142 30L124.721 20.0312L41 68.3682V97.5L21 84.5V57L104.732 8.49902L90 0H142V30Z" fill="#24E698"/>
<circle cx="94" cy="114" r="6" fill="#24E698"/>
<circle opacity="0.6" cx="109" cy="105" r="6" fill="#24E698"/>
<circle opacity="0.3" cx="124" cy="96" r="6" fill="#24E698"/>
</svg>
