<svg width="649" height="160" viewBox="0 0 649 160" fill="none" xmlns="http://www.w3.org/2000/svg">
<path d="M215.108 72.0898C215.108 74.6175 214.528 76.938 213.367 79.0514C212.207 81.1233 210.425 82.8015 208.022 84.0861C205.618 85.3707 202.635 86.013 199.071 86.013H192.483V101.677H181.854V58.0423H199.071C202.552 58.0423 205.494 58.6432 207.898 59.8449C210.301 61.0466 212.103 62.7041 213.305 64.8174C214.507 66.9308 215.108 69.3549 215.108 72.0898ZM198.263 77.5596C200.294 77.5596 201.806 77.0831 202.801 76.13C203.795 75.1769 204.292 73.8302 204.292 72.0898C204.292 70.3494 203.795 69.0027 202.801 68.0496C201.806 67.0965 200.294 66.62 198.263 66.62H192.483V77.5596H198.263ZM232.513 72.7735C233.756 70.8674 235.31 69.3756 237.175 68.2982C239.04 67.1794 241.112 66.62 243.391 66.62V77.8704H240.469C237.817 77.8704 235.828 78.4505 234.502 79.6108C233.176 80.7296 232.513 82.7186 232.513 85.5779V101.677H221.884V66.9929H232.513V72.7735ZM265.502 102.174C262.104 102.174 259.038 101.449 256.303 99.9983C253.609 98.5479 251.475 96.476 249.901 93.7826C248.367 91.0891 247.601 87.9398 247.601 84.3347C247.601 80.771 248.388 77.6425 249.963 74.949C251.537 72.2141 253.692 70.1215 256.427 68.6712C259.162 67.2208 262.228 66.4957 265.626 66.4957C269.024 66.4957 272.091 67.2208 274.826 68.6712C277.56 70.1215 279.715 72.2141 281.29 74.949C282.865 77.6425 283.652 80.771 283.652 84.3347C283.652 87.8984 282.844 91.0477 281.228 93.7826C279.653 96.476 277.478 98.5479 274.701 99.9983C271.966 101.449 268.9 102.174 265.502 102.174ZM265.502 92.9745C267.532 92.9745 269.252 92.2287 270.661 90.7369C272.111 89.2451 272.837 87.1111 272.837 84.3347C272.837 81.5584 272.132 79.4243 270.723 77.9325C269.356 76.4408 267.657 75.6949 265.626 75.6949C263.554 75.6949 261.835 76.4408 260.467 77.9325C259.1 79.3829 258.416 81.5169 258.416 84.3347C258.416 87.1111 259.079 89.2451 260.405 90.7369C261.773 92.2287 263.472 92.9745 265.502 92.9745ZM307.938 75.8192H302.219V101.677H291.59V75.8192H287.737V66.9929H291.59V65.9984C291.59 61.7303 292.813 58.4981 295.258 56.3019C297.703 54.0643 301.287 52.9454 306.011 52.9454C306.798 52.9454 307.378 52.9662 307.751 53.0076V62.0204C305.721 61.896 304.291 62.1861 303.462 62.8906C302.634 63.595 302.219 64.8589 302.219 66.6821V66.9929H307.938V75.8192ZM319.521 63.3878C317.656 63.3878 316.123 62.8491 314.921 61.7717C313.761 60.6529 313.181 59.2854 313.181 57.6694C313.181 56.0118 313.761 54.6444 314.921 53.567C316.123 52.4482 317.656 51.8888 319.521 51.8888C321.344 51.8888 322.836 52.4482 323.996 53.567C325.198 54.6444 325.799 56.0118 325.799 57.6694C325.799 59.2854 325.198 60.6529 323.996 61.7717C322.836 62.8491 321.344 63.3878 319.521 63.3878ZM324.804 66.9929V101.677H314.175V66.9929H324.804ZM353.081 92.6638V101.677H347.673C343.819 101.677 340.815 100.744 338.66 98.8794C336.505 96.9733 335.428 93.8862 335.428 89.6181V75.8192H331.201V66.9929H335.428V58.5396H346.057V66.9929H353.019V75.8192H346.057V89.7424C346.057 90.7783 346.306 91.5242 346.803 91.98C347.3 92.4358 348.129 92.6638 349.289 92.6638H353.081ZM386.661 79.3C389.189 79.8387 391.219 81.1026 392.752 83.0916C394.286 85.0392 395.052 87.2768 395.052 89.8045C395.052 93.4511 393.768 96.3517 391.198 98.5065C388.671 100.62 385.128 101.677 380.57 101.677H360.244V58.0423H379.886C384.32 58.0423 387.78 59.0575 390.266 61.088C392.794 63.1185 394.058 65.8741 394.058 69.3549C394.058 71.924 393.374 74.0581 392.007 75.757C390.68 77.456 388.899 78.637 386.661 79.3ZM370.873 75.6949H377.835C379.575 75.6949 380.901 75.322 381.813 74.5761C382.766 73.7887 383.242 72.6492 383.242 71.1574C383.242 69.6657 382.766 68.5261 381.813 67.7388C380.901 66.9515 379.575 66.5578 377.835 66.5578H370.873V75.6949ZM378.705 93.0988C380.487 93.0988 381.854 92.7052 382.807 91.9179C383.802 91.0891 384.299 89.9081 384.299 88.3749C384.299 86.8417 383.781 85.64 382.745 84.7698C381.751 83.8996 380.362 83.4645 378.581 83.4645H370.873V93.0988H378.705ZM436.709 66.9929V101.677H426.08V96.9526C425.002 98.4858 423.531 99.7289 421.667 100.682C419.843 101.594 417.813 102.049 415.575 102.049C412.923 102.049 410.582 101.469 408.551 100.309C406.521 99.1074 404.946 97.3877 403.827 95.15C402.709 92.9124 402.149 90.2811 402.149 87.2561V66.9929H412.716V85.8265C412.716 88.147 413.317 89.9496 414.518 91.2341C415.72 92.5187 417.336 93.161 419.367 93.161C421.439 93.161 423.075 92.5187 424.277 91.2341C425.479 89.9496 426.08 88.147 426.08 85.8265V66.9929H436.709ZM443.473 84.2726C443.473 80.7089 444.136 77.5803 445.462 74.8869C446.829 72.1934 448.673 70.1215 450.994 68.6712C453.314 67.2208 455.904 66.4957 458.764 66.4957C461.043 66.4957 463.115 66.9722 464.979 67.9253C466.885 68.8783 468.377 70.1629 469.455 71.779V55.6803H480.083V101.677H469.455V96.704C468.46 98.3615 467.03 99.6875 465.166 100.682C463.342 101.677 461.208 102.174 458.764 102.174C455.904 102.174 453.314 101.449 450.994 99.9983C448.673 98.5065 446.829 96.4139 445.462 93.7204C444.136 90.9855 443.473 87.8362 443.473 84.2726ZM469.455 84.3347C469.455 81.6827 468.709 79.5901 467.217 78.0569C465.767 76.5237 463.985 75.757 461.871 75.757C459.758 75.757 457.956 76.5237 456.464 78.0569C455.013 79.5486 454.288 81.6205 454.288 84.2726C454.288 86.9246 455.013 89.0379 456.464 90.6126C457.956 92.1458 459.758 92.9124 461.871 92.9124C463.985 92.9124 465.767 92.1458 467.217 90.6126C468.709 89.0794 469.455 86.9867 469.455 84.3347ZM486.903 84.2726C486.903 80.7089 487.566 77.5803 488.892 74.8869C490.259 72.1934 492.103 70.1215 494.424 68.6712C496.744 67.2208 499.334 66.4957 502.193 66.4957C504.472 66.4957 506.544 66.9722 508.409 67.9253C510.315 68.8783 511.807 70.1629 512.884 71.779V55.6803H523.513V101.677H512.884V96.704C511.89 98.3615 510.46 99.6875 508.596 100.682C506.772 101.677 504.638 102.174 502.193 102.174C499.334 102.174 496.744 101.449 494.424 99.9983C492.103 98.5065 490.259 96.4139 488.892 93.7204C487.566 90.9855 486.903 87.8362 486.903 84.2726ZM512.884 84.3347C512.884 81.6827 512.138 79.5901 510.647 78.0569C509.196 76.5237 507.415 75.757 505.301 75.757C503.188 75.757 501.385 76.5237 499.894 78.0569C498.443 79.5486 497.718 81.6205 497.718 84.2726C497.718 86.9246 498.443 89.0379 499.894 90.6126C501.385 92.1458 503.188 92.9124 505.301 92.9124C507.415 92.9124 509.196 92.1458 510.647 90.6126C512.138 89.0794 512.884 86.9867 512.884 84.3347ZM567.875 66.9929L546.12 118.148H534.683L542.64 100.496L528.53 66.9929H540.402L548.42 88.6857L556.376 66.9929H567.875ZM572.34 102.174C570.476 102.174 568.943 101.635 567.741 100.558C566.581 99.4389 566 98.0714 566 96.4553C566 94.7978 566.581 93.4096 567.741 92.2908C568.943 91.172 570.476 90.6126 572.34 90.6126C574.164 90.6126 575.655 91.172 576.816 92.2908C578.017 93.4096 578.618 94.7978 578.618 96.4553C578.618 98.0714 578.017 99.4389 576.816 100.558C575.655 101.635 574.164 102.174 572.34 102.174ZM613.938 93.969H597.652L595.042 101.677H583.916L599.704 58.0423H612.011L627.799 101.677H616.548L613.938 93.969ZM611.203 85.7643L605.795 69.79L600.449 85.7643H611.203ZM644.476 58.0423V101.677H633.847V58.0423H644.476Z" fill="white"/>
<path d="M76 88.6758V160L142 121.324V50L76 88.6758Z" fill="white"/>
<path d="M66 88.6758V160L0 121.324V50L66 88.6758Z" fill="white"/>
<path d="M71 80L0 40L71 0L142 40L71 80Z" fill="white"/>
<path d="M142 30L124.721 20.0312L41 68.3682V97.5L21 84.5V57L104.732 8.49902L90 0H142V30Z" fill="#24E698"/>
<circle cx="94" cy="114" r="6" fill="#24E698"/>
<circle opacity="0.6" cx="109" cy="105" r="6" fill="#24E698"/>
<circle opacity="0.3" cx="124" cy="96" r="6" fill="#24E698"/>
</svg>
