<svg width="300" height="300" viewBox="0 0 300 300" fill="none" xmlns="http://www.w3.org/2000/svg">
<rect x="0.625" y="0.625" width="298.75" height="298.75" rx="149.375" fill="white"/>
<rect x="0.625" y="0.625" width="298.75" height="298.75" rx="149.375" stroke="#BCBCBC" stroke-width="1.25"/>
<path d="M156.25 160.845V250L238.75 201.655V112.5L156.25 160.845Z" fill="black"/>
<path d="M143.75 160.845V250L61.25 201.655V112.5L143.75 160.845Z" fill="#D9D9D9"/>
<path d="M143.75 160.845V250L61.25 201.655V112.5L143.75 160.845Z" fill="black"/>
<path d="M150 150L61.25 100L150 50L238.75 100L150 150Z" fill="black"/>
<path d="M238.75 87.5L217.151 75.0391L112.5 135.46V171.875L87.5 155.625V121.25L192.166 60.624L173.75 50H238.75V87.5Z" fill="#24E698"/>
<circle cx="178.75" cy="192.5" r="7.5" fill="#24E698"/>
<circle opacity="0.6" cx="197.5" cy="181.25" r="7.5" fill="#24E698"/>
<circle opacity="0.3" cx="216.25" cy="170" r="7.5" fill="#24E698"/>
</svg>
